FFmpeg version SVN-r25716, Copyright (c) 2000-2010 the FFmpeg developers  built on Nov 10 2010 12:23:18 with gcc 4.1.2 20080704 (Red Hat 4.1.2-48)  configuration: --enable-libmp3lame --enable-shared --disable-mmx --arch=x86_64  libavutil     50.33. 0 / 50.33. 0  libavcore      0.12. 1 /  0.12. 1  libavcodec    52.94. 4 / 52.94. 4  libavformat   52.84. 0 / 52.84. 0  libavdevice   52. 2. 2 / 52. 2. 2  libavfilter    1.59. 0 /  1.59. 0  libswscale     0.12. 0 /  0.12. 0Seems stream 0 codec frame rate differs from container frame rate: 1200.00 (1200/1) -> 30.00 (30/1)Input #0, mov,mp4,m4a,3gp,3g2,mj2, from '/RAID10/data/converted_video_files/42153.mov':  Metadata:    major_brand     : qt      minor_version   : 537199360    compatible_brands: qt    Duration: 00:00:19.26, start: 0.000000, bitrate: 1685 kb/s    Stream #0.0(eng): Video: h264, yuv420p, 720x480, 1684 kb/s, PAR 10:11 DAR 15:11, 30 fps, 30 tbr, 600 tbn, 1200 tbc[buffer @ 0x1a5f9da0] w:720 h:480 pixfmt:yuv420pOutput #0, flv, to '/RAID10/data/converted_video_files/42153.flv':  Metadata:    encoder         : Lavf52.84.0    Stream #0.0(eng): Video: flv, yuv420p, 720x480 [PAR 10:11 DAR 15:11], q=2-31, 600 kb/s, 1k tbn, 24 tbcStream mapping:  Stream #0.0 -> #0.0Press [q] to stop encodingframe=   33 fps=  0 q=3.0 size=     224kB time=1.38 bitrate=1336.4kbits/s dup=0 drop=8    frame=   74 fps= 70 q=3.6 size=     433kB time=3.08 bitrate=1151.5kbits/s dup=0 drop=18    frame=  112 fps= 72 q=4.4 size=     582kB time=4.67 bitrate=1022.4kbits/s dup=0 drop=28    frame=  154 fps= 75 q=4.4 size=     694kB time=6.42 bitrate= 885.6kbits/s dup=0 drop=38    frame=  195 fps= 76 q=4.4 size=     826kB time=8.12 bitrate= 832.9kbits/s dup=0 drop=48    frame=  236 fps= 76 q=4.5 size=     961kB time=9.83 bitrate= 800.5kbits/s dup=0 drop=59    frame=  267 fps= 75 q=5.4 size=    1062kB time=11.12 bitrate= 781.8kbits/s dup=0 drop=66    frame=  307 fps= 75 q=4.6 size=    1184kB time=12.79 bitrate= 758.4kbits/s dup=0 drop=76    frame=  343 fps= 75 q=7.7 size=    1301kB time=14.29 bitrate= 745.6kbits/s dup=0 drop=85    frame=  382 fps= 75 q=6.6 size=    1426kB time=15.92 bitrate= 733.8kbits/s dup=0 drop=95    frame=  415 fps= 74 q=7.5 size=    1527kB time=17.29 bitrate= 723.4kbits/s dup=0 drop=103    frame=  453 fps= 74 q=6.8 size=    1646kB time=18.88 bitrate= 714.5kbits/s dup=0 drop=113    frame=  463 fps= 73 q=12.7 Lsize=    1691kB time=19.29 bitrate= 717.9kbits/s dup=0 drop=115    video:1683kB audio:0kB global headers:0kB muxing overhead 0.441982%